{"title":"Escape Plan  (2013) WEBRip 720p","uid":9509688,"size":4311752664,"categoryP":"video","categoryS":"hd___movies","magnet":"?xt=urn:btih:70f4b76b72b6b6a711a29340b03805c66fe7e467&amp;dn=Escape+Plan++%282013%29+WEBRip+720p&amp;tr=udp%3A%2F%2Ftracker.openbittorrent.com%3A80&amp;tr=udp%3A%2F%2Fopen.demonii.com%3A1337&amp;tr=udp%3A%2F%2Ftracker.coppersurfer.tk%3A6969&amp;tr=udp%3A%2F%2Fexodus.desync.com%3A6969","seeders":1,"leechers":0,"uploader":"yfjfrj","files":1,"time":1390380151,"description":"MI:\nGeneral\nUnique ID                                : 232468505889962986751853823459046185028 (0xAEE3CE3FDE22B490A1AFF965F5F3D844)\nComplete name                            : D:moviesEscape.Plan.2013.D.WEBDL.720p.mkv\nFormat                                   : Matroska\nFormat version                           : Version 2\nFile size                                : 4.02 GiB\nDuration                                 : 1h 55mn\nOverall bit rate                         : 4 973 Kbps\nEncoded date                             : UTC 2014-01-21 07:30:41\nWriting application                      : mkvmerge v5.8.0 ('No Sleep / Pillow') built on Sep  2 2012 15:37:04\nWriting library                          : libebml v1.2.3 + libmatroska v1.3.0\n\nVideo\nID                                       : 1\nFormat                                   : AVC\nFormat/Info                              : Advanced Video Codec\nFormat profile                           : &lt;a class=&quot;__cf_email__&quot; href=&quot;/cdn-cgi/l/email-protection&quot; data-cfemail=&quot;8cc1ede5e2ccc0bfa2bd&quot;&gt;[email&amp;#160;protected]&lt;/a&gt;&lt;script cf-hash='f9e31' type=&quot;text/javascript&quot;&gt;\n/* &lt;![CDATA[ */!function(){try{var t=&quot;currentScript&quot;in document?document.currentScript:function(){for(var t=document.getElementsByTagName(&quot;script&quot;),e=t.length;e--;)if(t[e].getAttribute(&quot;cf-hash&quot;))return t[e]}();if(t&amp;&amp;t.previousSibling){var e,r,n,i,c=t.previousSibling,a=c.getAttribute(&quot;data-cfemail&quot;);if(a){for(e=&quot;&quot;,r=parseInt(a.substr(0,2),16),n=2;a.length-n;n+=2)i=parseInt(a.substr(n,2),16)^r,e+=String.fromCharCode(i);e=document.createTextNode(e),c.parentNode.replaceChild(e,c)}}}catch(u){}}();/* ]]&gt; */&lt;/script&gt;\nFormat settings, CABAC                   : No\nFormat settings, ReFrames                : 2 frames\nCodec ID                                 : V_MPEG4/ISO/AVC\nDuration                                 : 1h 55mn\nBit rate                                 : 4 170 Kbps\nWidth                                    : 1 280 pixels\nHeight                                   : 532 pixels\nDisplay aspect ratio                     : 2.40:1\nFrame rate mode                          : Constant\nFrame rate                               : 23.976 fps\nColor space                              : YUV\nChroma subsampling                       : 4:2:0\nBit depth                                : 8 bits\nScan type                                : Progressive\nBits/(Pixel*Frame)                       : 0.255\nStream size                              : 3.37 GiB (84%)\nLanguage                                 : English\nDefault                                  : Yes\nForced                                   : No\nColor primaries                          : BT.709\nTransfer characteristics                 : BT.709\nMatrix coefficients                      : BT.709\n\nAudio #1\nID                                       : 2\nFormat                                   : AC-3\nFormat/Info                              : Audio Coding 3\nMode extension                           : CM (complete main)\nFormat settings, Endianness              : Big\nCodec ID                                 : A_AC3\nDuration                                 : 1h 55mn\nBit rate mode                            : Constant\nBit rate                                 : 320 Kbps\nChannel(s)                               : 2 channels\nChannel positions                        : Front: L R\nSampling rate                            : 48.0 KHz\nBit depth                                : 16 bits\nCompression mode                         : Lossy\nStream size                              : 265 MiB (6%)\nLanguage                                 : Russian\nDefault                                  : Yes\nForced                                   : No\n\nAudio #2\nID                                       : 3\nFormat                                   : AC-3\nFormat/Info                              : Audio Coding 3\nMode extension                           : CM (complete main)\nFormat settings, Endianness              : Big\nCodec ID                                 : A_AC3\nDuration                                 : 1h 55mn\nBit rate mode                            : Constant\nBit rate                                 : 384 Kbps\nChannel(s)                               : 6 channels\nChannel positions                        : Front: L C R, Side: L R, LFE\nSampling rate                            : 48.0 KHz\nBit depth                                : 16 bits\nCompression mode                         : Lossy\nStream size                              : 317 MiB (8%)\nLanguage                                 : English\nDefault                                  : No\nForced                                   : No\n\nMenu\n00:00:00.000                             : en:Chapter 1\n00:06:33.000                             : en:Chapter 2\n00:15:41.000                             : en:Chapter 3\n00:19:50.000                             : en:Chapter 4\n00:26:22.000                             : en:Chapter 5\n00:33:08.000                             : en:Chapter 6\n00:39:14.000                             : en:Chapter 7\n00:45:41.000                             : en:Chapter 8\n00:50:07.000                             : en:Chapter 9\n00:58:59.000                             : en:Chapter 10\n01:06:45.000                             : en:Chapter 11\n01:13:50.000                             : en:Chapter 12\n01:21:04.000                             : en:Chapter 13\n01:27:58.000                             : en:Chapter 14\n01:35:35.000                             : en:Chapter 15\n01:42:12.000                             : en:Chapter 16\n\nScreenshoys: &lt;a href=&quot;\nhttp://i6.imageban.ru/out/2014/01/22/f15c9dae173e36bfe586ecf608365c6d.png&quot; rel=&quot;nofollow&quot; target=&quot;_NEW&quot;&gt;\nhttp://i6.imageban.ru/out/2014/01/22/f15c9dae173e36bfe586ecf608365c6d.png&lt;/a&gt; &lt;a href=&quot;\nhttp://i2.imageban.ru/out/2014/01/22/9088ebf6b260a6092b286f2e70729ddc.png&quot; rel=&quot;nofollow&quot; target=&quot;_NEW&quot;&gt;\nhttp://i2.imageban.ru/out/2014/01/22/9088ebf6b260a6092b286f2e70729ddc.png&lt;/a&gt; &lt;a href=&quot;\nhttp://i3.imageban.ru/out/2014/01/22/37fb1ee7141874de886973dc585e2e02.png&quot; rel=&quot;nofollow&quot; target=&quot;_NEW&quot;&gt;\nhttp://i3.imageban.ru/out/2014/01/22/37fb1ee7141874de886973dc585e2e02.png&lt;/a&gt; &lt;a href=&quot;\nhttp://i6.imageban.ru/out/2014/01/22/ad94c6f1a2a671f15bea9b371217ae66.png&quot; rel=&quot;nofollow&quot; target=&quot;_NEW&quot;&gt;\nhttp://i6.imageban.ru/out/2014/01/22/ad94c6f1a2a671f15bea9b371217ae66.png&lt;/a&gt; &lt;a href=&quot;\nhttp://i5.imageban.ru/out/2014/01/22/570b96f3f9b9a818c32f5a4f9a0b9636.png&quot; rel=&quot;nofollow&quot; target=&quot;_NEW&quot;&gt;\nhttp://i5.imageban.ru/out/2014/01/22/570b96f3f9b9a818c32f5a4f9a0b9636.png&lt;/a&gt; &lt;a href=&quot;\nhttp://i2.imageban.ru/out/2014/01/22/0c00fbf9391f63255e87433f4ccd1438.png&quot; rel=&quot;nofollow&quot; target=&quot;_NEW&quot;&gt;\nhttp://i2.imageban.ru/out/2014/01/22/0c00fbf9391f63255e87433f4ccd1438.png&lt;/a&gt; &lt;a href=&quot;\nhttp://i3.imageban.ru/out/2014/01/22/f6d461cef1ea8386bc7cc796c544df65.png&quot; rel=&quot;nofollow&quot; target=&quot;_NEW&quot;&gt;\nhttp://i3.imageban.ru/out/2014/01/22/f6d461cef1ea8386bc7cc796c544df65.png&lt;/a&gt; &lt;a href=&quot;\nhttp://i5.imageban.ru/out/2014/01/22/5073428bf532ba16c1818e71395a1742.png&quot; rel=&quot;nofollow&quot; target=&quot;_NEW&quot;&gt;\nhttp://i5.imageban.ru/out/2014/01/22/5073428bf532ba16c1818e71395a1742.png&lt;/a&gt; &lt;a href=&quot;\nhttp://i6.imageban.ru/out/2014/01/22/9360a561cb03f6b8b48fc4b55f21b9a3.png&quot; rel=&quot;nofollow&quot; target=&quot;_NEW&quot;&gt;\nhttp://i6.imageban.ru/out/2014/01/22/9360a561cb03f6b8b48fc4b55f21b9a3.png&lt;/a&gt; &lt;a href=&quot;\nhttp://i5.imageban.ru/out/2014/01/22/d8c869157be2aa650c32cf4921a9f93f.png&quot; rel=&quot;nofollow&quot; target=&quot;_NEW&quot;&gt;\nhttp://i5.imageban.ru/out/2014/01/22/d8c869157be2aa650c32cf4921a9f93f.png&lt;/a&gt; &lt;a href=&quot;\nhttp://i1.imageban.ru/out/2014/01/22/04925b75a8e25a13f97d1fda5988139d.png&quot; rel=&quot;nofollow&quot; target=&quot;_NEW&quot;&gt;\nhttp://i1.imageban.ru/out/2014/01/22/04925b75a8e25a13f97d1fda5988139d.png&lt;/a&gt; &lt;a href=&quot;\nhttp://i5.imageban.ru/out/2014/01/22/6c572f9a0d73a466c2f0e721edb460ad.png&quot; rel=&quot;nofollow&quot; target=&quot;_NEW&quot;&gt;\nhttp://i5.imageban.ru/out/2014/01/22/6c572f9a0d73a466c2f0e721edb460ad.png&lt;/a&gt;\n\nScreenlist: &lt;a href=&quot;\nhttp://i3.imageban.ru/out/2014/01/22/c5d1bde0e2709dfae604ceca32402ad7.png&quot; rel=&quot;nofollow&quot; target=&quot;_NEW&quot;&gt;\nhttp://i3.imageban.ru/out/2014/01/22/c5d1bde0e2709dfae604ceca32402ad7.png&lt;/a&gt;","torrent":{"xt":"urn:btih:70f4b76b72b6b6a711a29340b03805c66fe7e467","amp;dn":"Escape+Plan++%282013%29+WEBRip+720p","amp;tr":["udp%3A%2F%2Ftracker.openbittorrent.com%3A80","udp%3A%2F%2Fopen.demonii.com%3A1337","udp%3A%2F%2Ftracker.coppersurfer.tk%3A6969","udp%3A%2F%2Fexodus.desync.com%3A6969"],"infoHash":"70f4b76b72b6b6a711a29340b03805c66fe7e467","infoHashBuffer":{"type":"Buffer","data":[112,244,183,107,114,182,182,167,17,162,147,64,176,56,5,198,111,231,228,103]},"announce":[],"urlList":[]}}